/* XPM */
static char *ppp-config-16[] = {
/* columns rows colors chars-per-pixel */
"16 16 170 2",
"   c black",
".  c #070707",
"X  c #0B0B0B",
"o  c #111111",
"O  c gray10",
"+  c gray11",
"@  c gray12",
"#  c #1F353B",
"$  c #232323",
"%  c gray16",
"&  c #20353B",
"*  c #28373A",
"=  c gray19",
"-  c gray20",
";  c #343434",
":  c gray21",
">  c #303A3E",
",  c #3C3C3C",
"<  c #16667B",
"1  c #3A4446",
"2  c #3C4E54",
"3  c #3F4F54",
"4  c #3C525A",
"5  c #245766",
"6  c #2A5F6C",
"7  c #286D7F",
"8  c #434343",
"9  c #444444",
"0  c #464B4B",
"q  c #484848",
"w  c #494949",
"e  c #4E4E4E",
"r  c gray31",
"t  c #40585D",
"y  c gray32",
"u  c #5A5A5A",
"i  c #435B64",
"p  c #585E60",
"a  c #4F6168",
"s  c #52676F",
"d  c #5A767F",
"f  c #666767",
"g  c gray43",
"h  c #717171",
"j  c gray47",
"k  c #1D6882",
"l  c #437A8A",
"z  c #457F90",
"x  c #797E80",
"c  c #3B839C",
"v  c #458D9B",
"b  c #5A8492",
"n  c #4188A3",
"m  c #4289A4",
"M  c #498EA8",
"N  c #4995AF",
"B  c #5596AD",
"V  c #5E9DA8",
"C  c #5F9DA8",
"Z  c #5F9DA9",
"A  c #5C9EB4",
"S  c #6C838C",
"D  c #6D8C96",
"F  c #66939F",
"G  c #6597A7",
"H  c #6597A8",
"J  c #619AA7",
"K  c #619DA8",
"L  c #6B9CAF",
"P  c #649EB4",
"I  c #769AA7",
"U  c #7E99A0",
"Y  c #7F9AA2",
"T  c #6AA69D",
"R  c #65A0AA",
"E  c #65A1AC",
"W  c #61A1B6",
"Q  c #65A3B7",
"!  c #6FA8BB",
"~  c #70A2B1",
"^  c #73A1B3",
"/  c #73A6B3",
"(  c #71A6B8",
")  c #71A8BB",
"_  c #70ADBB",
"`  c #71ADC2",
"'  c #71B4CA",
"]  c #7DB4C6",
"[  c #969963",
"{  c #87BE67",
"}  c #83BF6C",
"|  c #84BF6C",
" . c #83BD77",
".. c #818181",
"X. c #828686",
"o. c #858686",
"O. c #898989",
"+. c #8B8B8B",
"@. c #859A90",
"#. c #819B9F",
"$. c #8E9090",
"%. c gray57",
"&. c #929292",
"*. c #959595",
"=. c gray59",
"-. c gray60",
";. c #9A9A9A",
":. c gray61",
">. c gray62",
",. c #829DA3",
"<. c #829EA5",
"1. c #839EA5",
"2. c #82A18F",
"3. c #82A190",
"4. c #85A497",
"5. c #8EA1A8",
"6. c #8CA3AC",
"7. c #8CA5A9",
"8. c #81B9B4",
"9. c #9FA1A1",
"0. c #A0A0A0",
"q. c #A2A2A2",
"w. c #A5A5A5",
"e. c gray65",
"r. c #A7A7A7",
"t. c #A9A9A9",
"y. c #AAAAAA",
"u. c gray67",
"i. c #AFAFAF",
"p. c #B2B2B2",
"a. c gray70",
"s. c gray71",
"d. c #B6B6B6",
"f. c #B7B7B7",
"g. c gray72",
"h. c gray73",
"j. c #BCBCBC",
"k. c gray74",
"l. c gray",
"z. c gray75",
"x. c #8FB9C8",
"c. c #92BBCA",
"v. c #91BCCB",
"b. c #90BECE",
"n. c #9CCADA",
"m. c #C1C1C1",
"M. c #C3C3C3",
"N. c gray77",
"B. c #C5C5C5",
"V. c #C6C6C6",
"C. c gray78",
"Z. c #C8C8C8",
"A. c gray79",
"S. c #CACACA",
"D. c #CBCBCB",
"F. c gray80",
"G. c gray81",
"H. c gray82",
"J. c LightGray",
"K. c #D5D5D6",
"L. c gray84",
"P. c gray85",
"I. c gray86",
"U. c #DFDFDF",
"Y. c gray89",
"T. c #E4E4E4",
"R. c #E6E6E7",
"E. c #E9EAEA",
"W. c gray100",
"Q. c None",
/* pixels */
"Q.Q.Q.Q.y , h =.q.q.=.+.h q = Q.",
"Q.Q.Q.% 9 z.G.G.S.h.f.f.l.%.= Q.",
"Q.Q.Q.o =.F.F.B.t.>.t.l.S.=.; Q.",
"Q.Q.Q.+ t.B.l.;.= + O $ q u = Q.",
"Q.Q.Q.X =.l.f.p.p.u.=...r = ; Q.",
"Q.Q.Q.  r p.f.f.h.l.z.z.l.j ; Q.",
"Q.Q.Q.  . 8 +.t.f.l.l.h.l.S.y Q.",
"Q.v < 6 0 > # & * 1 O.z.z.S.f Q.",
"Q.! k 5 ;.B.q.$.j X.s.D.B.D.p Q.",
"Q.V b l q.I.Y.T.T.U.P.J.C.9.4 Q.",
"Q./ H b h f.L.R.E.T.L.l.+.s G Q.",
"J x.x.I D d i 4 2 3 a S c.n.b.< ",
"L / / / ) A B M m m N ' ` ) P c ",
"] _  .R K T | | { [ Z K K K Q W ",
"5.7.4.1.1.#.2.2.2.@.U U ,.1.6.5.",
"Q.                            Q."
};
