/* XPM */
static char *pppoe_config[] = {
/* columns rows colors chars-per-pixel */
"32 32 210 2",
"   c #1E1E1E",
".  c #2D211E",
"X  c #2C2522",
"o  c #2D2A27",
"O  c #2C2E2A",
"+  c #382A27",
"@  c #352E2B",
"#  c #3D2D2B",
"$  c #34322E",
"%  c #3C312E",
"&  c #363430",
"*  c #3E3533",
"=  c #3F3B37",
"-  c #423533",
";  c #413A37",
":  c #463D3B",
">  c #493C3B",
",  c #33354F",
"<  c #4B4341",
"1  c #504543",
"2  c #524846",
"3  c #544B4A",
"4  c #565656",
"5  c #5C5554",
"6  c #5F5857",
"7  c #5F5C5B",
"8  c #6B5757",
"9  c #625D5D",
"0  c #6B5B5A",
"q  c #725A59",
"w  c #67605F",
"e  c #4F4F67",
"r  c #44406E",
"t  c #4D4F78",
"y  c #4F527A",
"u  c #52557C",
"i  c #646464",
"p  c #6B6464",
"a  c #6C6B6B",
"s  c #756767",
"d  c #756D6C",
"f  c #7B6B6B",
"g  c #686877",
"h  c #62647B",
"j  c #696A7A",
"k  c #737373",
"l  c #797474",
"z  c #7E7E7E",
"x  c #9A4742",
"c  c #9E4E4D",
"v  c #895D5C",
"b  c #915D5C",
"n  c #B6514A",
"m  c #A15751",
"M  c #AF5750",
"N  c #A15D5D",
"B  c #91605E",
"V  c #AA625F",
"C  c #8E6463",
"Z  c #806A6B",
"A  c #8D6969",
"S  c #916B67",
"D  c #9A6862",
"F  c #936C6A",
"G  c #98746C",
"H  c #846F72",
"J  c #837676",
"K  c #8C7777",
"L  c #8A7778",
"P  c #847A7A",
"I  c #8C7C7C",
"U  c #947474",
"Y  c #997472",
"T  c #957977",
"R  c #9B7C72",
"E  c #947F7F",
"W  c #9D7B7B",
"Q  c #AA6562",
"!  c #A26968",
"~  c #C05F5A",
"^  c #B5913B",
"/  c #9DC939",
"(  c #C1E018",
")  c #9A8962",
"_  c #929D65",
"`  c #9D8177",
"'  c #9C817E",
"]  c #97887F",
"[  c #9DAA72",
"{  c #ADA57F",
"}  c #AABE7D",
"|  c #464885",
" . c #5E5A87",
".. c #4A4C91",
"X. c #4D5094",
"o. c #515195",
"O. c #6B6C88",
"+. c #6F7286",
"@. c #6D7094",
"#. c #7B7F9B",
"$. c #524BAB",
"%. c #5C5EA1",
"&. c #5F62AD",
"*. c #6264A0",
"=. c #6D6FA5",
"-. c #7B7EA5",
";. c #7474AF",
":. c #676BB5",
">. c #686CB7",
",. c #7676B1",
"<. c #787CB0",
"1. c #7275B8",
"2. c #767AB8",
"3. c #797DBD",
"4. c #6159C1",
"5. c #635CD3",
"6. c #7277C3",
"7. c #7A7EC7",
"8. c #7A7ECA",
"9. c #6661D6",
"0. c #7F82A5",
"q. c #7E81D4",
"w. c #7D81DB",
"e. c #7FAAEA",
"r. c #848383",
"t. c #898484",
"y. c #888888",
"u. c #978686",
"i. c #968F8F",
"p. c #848E97",
"a. c #88849C",
"s. c #8F9094",
"d. c #949494",
"f. c #989191",
"g. c #9B9B9B",
"h. c #A58080",
"j. c #A58C89",
"k. c #A79291",
"l. c #A89797",
"z. c #A19E9E",
"x. c #A99D9C",
"c. c #BD9695",
"v. c #9CAD8E",
"b. c #9DB08D",
"n. c #9FB290",
"m. c #ABA09F",
"M. c #8386A9",
"N. c #9393AB",
"B. c #A4A4A4",
"V. c #A9AEA5",
"C. c #AEADAD",
"Z. c #B1AEAE",
"A. c #ACB2A8",
"S. c #ACB2B4",
"D. c #B3B2B3",
"F. c #BCBCBC",
"G. c #C3B2B3",
"H. c #C8B6B5",
"J. c #CFB8B8",
"K. c #E5BFBF",
"L. c #8FD48F",
"P. c #9DE29D",
"I. c #A2D4A2",
"U. c #B3E8B3",
"Y. c #8B8EC6",
"T. c #9A98C7",
"R. c #9799CD",
"E. c #9A9CCC",
"W. c #8386D2",
"Q. c #8183D9",
"!. c #A3A5D2",
"~. c #A2A4DE",
"^. c #B2B4D4",
"/. c #B7B7DB",
"(. c #B6B8DA",
"). c #878DE7",
"_. c #8284EC",
"`. c #9AA0E8",
"'. c #8BB8FA",
"]. c #A8AAE5",
"[. c #A3A4E9",
"{. c #A0A7FF",
"}. c #B8BCFF",
"|. c #BEC3C6",
" X c #BEC5C8",
".X c #B4D2FF",
"XX c #C7C8CB",
"oX c #CCCCCE",
"OX c #D3CFCF",
"+X c #CECED2",
"@X c #C6C7DC",
"#X c #CAD3D6",
"$X c #D7D7D7",
"%X c #DDDEDD",
"&X c #E8C0C0",
"*X c #F6CECE",
"=X c #F9D2D2",
"-X c #CCF2CC",
";X c #CBCCE0",
":X c #C0C0E9",
">X c #C5D1E3",
",X c #CBD4E2",
"<X c #E2E2E2",
"1X c gray92",
"2X c #FFE3E3",
"3X c #E1EDFF",
"4X c #E8F1FF",
"5X c #F5F5F6",
"6X c #FEFEFE",
"7X c None",
/* pixels */
"7X7X7X7X7X7X7X7X7X7X7X7X7X7X7X7X7X7X7X7X7X7X7X7X7X7X7X7X7X7X7X7X",
"7X7X7X7X7X7X7X7X7X7X7X7X7X7X7X7X7X7X7X7X7X7X7X7X7X7X7X7X7X7X7X7X",
"7X7X7XJ i i i a i a a a a a k a i a a d a a a a a i a a P 7X7X7X",
"7X7X7Xu.i i i i a a a a k 3 - - > - * 3 a a 5 3 i a i i u.7X7X7X",
"7X7X7Xi.i i a a 5 7 a i - 1 a a p 9 5 # % : o O o > a i u.7X7X7X",
"7X7X7X] i a a : + > # @ o . . . . X O O @ & O O o ; > 9 f 7X7X7X",
"7X7X0 z w w 7 * a : O O O @ * : < 3 5 p l k 5 2 i d a a s * 7X7X",
"7X7Xw ] z 0.7 a 3 O O O ; r.y.t.t.y.t.y.y.y.y.y.y.t.r.r.P > 7X7X",
"7X7Xf d.d.d.4 d o O O $ r.g.g.g.g.g.g.g.g.g.g.g.g.g.g.d.f.p 7X7X",
"7X7Xr.B.g.5 $ o O O ; g.#XXXG.c.c.H.oX#X XA.C.S.S.C.Z.A.C.p 7X7X",
"7Xf D.Z.; l o o O i.H.m x c N ! ! Q n n V J.$X<XF.D.S.F.F.Z.7X7X",
"7Xl.F.t.l C.9 9 0 D U Y S S C C C v v v F OX5X%X%X%X6XD. X|.I 7X",
"7XL H L ] K u.Y j.W h.Y ` F R S Y C G S H.5X%X%XP.-X6X6Xg.q 8 7X",
"7XL E [ / W Q Y V U V _ / _ / _ / ) ^ F.@X@X%XL.U.3X.X6X6Xr.3 7X",
"7XF.Z.} ( j.b k.B k.b } ( } ( } ( b.F.@X(.!.p.I.>X'.4X2XoXB.C.7X",
"7XD.S.A.n.Z.x.C.m.C.x.V.b.V.b.V.v.H.,X(.!.g B.+Xe.,X=X*X%Xg.z.7X",
"7Xi 7 i i i i i a a a k a a a k H.;X(.!.g B.6X6XoXK.&X%X%XOX4 7X",
"7X7X7X7X7X7X7X7X7X7X7X7X7X7X  F.;X(.!.j B.6X6X6Xd.a.%X<X5XB.7X7X",
"7X7X7X7X7X7X7X7X7X7X7X7X7X7XD.;X(.!.j g.6X6X6Xd.h 8.].5XB.7X7X7X",
"7X7X7X7X7X7X7X7X7X7X7X7X7X7Xs.^.!.R.-.a 1X6Xd.h 8.w.w.<.7X7X7X7X",
"7X7X7X7X7X7X7X7X7X7X7X7X7XO.*.(.E.Y.0.+.a s.O.7.w._.,.7X7X7X7X7X",
"7X7X7X7X7X7X7X7X7X7X7X7X7X7X&.,.:XM.#.0.@.h 8.w._.,.7X7X7X7X7X7X",
"7X7X7X7X7X7X7X7X7X7X7X7X7X4.T.Y.1.`.-.<.3.8.w._.,.7X7X7X7X7X7X7X",
"7X7X7X7X7X7X7X7X7X7X7X7X7X .5.[.q.:.1.2.8.w.w.1.7X7X7X7X7X7X7X7X",
"7X7X7X7X7X7X7X7X7X7X7X7X7XN.].9.Q.>.&...q._.;.7X7X7X7X7X7X7X7X7X",
"7X7X7X7X7X7X7X7X7X7X7X7XN.}.{.W.5.o.X.| e =.7X7X7X7X7X7X7X7X7X7X",
"7X7X7X7X7X7X7X7X7X7X7XN.}.{.).u r $.7X, 7X7X7X7X7X7X7X7X7X7X7X7X",
"7X7X7X7X7X7X7X7X7X7XN.}.{.).u 7X7X7X7X7X7X7X7X7X7X7X7X7X7X7X7X7X",
"7X7X7X7X7X7X7X7X7X7X}.{.).y 7X7X7X7X7X7X7X7X7X7X7X7X7X7X7X7X7X7X",
"7X7X7X7X7X7X7X7X7X7X{.).t 7X7X7X7X7X7X7X7X7X7X7X7X7X7X7X7X7X7X7X",
"7X7X7X7X7X7X7X7X7X7X7X7X7X7X7X7X7X7X7X7X7X7X7X7X7X7X7X7X7X7X7X7X",
"7X7X7X7X7X7X7X7X7X7X7X7X7X7X7X7X7X7X7X7X7X7X7X7X7X7X7X7X7X7X7X7X"
};
