/* XPM */
static char *pppoe_config___[] = {
/* columns rows colors chars-per-pixel */
"16 16 140 2",
"   c #2C2E2A",
".  c #2D2E2A",
"X  c #372E2B",
"o  c #382E2B",
"O  c #2F302C",
"+  c #343434",
"@  c #353535",
"#  c #3D3432",
"$  c #3D3533",
"%  c #393939",
"&  c gray23",
"*  c #3C3C3C",
"=  c #453F3D",
"-  c #45413F",
";  c #454340",
":  c #4E4141",
">  c #4C4746",
",  c #4F4746",
"<  c #4D4946",
"1  c #4E4847",
"2  c #504C49",
"3  c #504C4B",
"4  c #554C4B",
"5  c #554E4D",
"6  c #595654",
"7  c #5B5757",
"8  c #5E5858",
"9  c #5D5B5B",
"0  c #5F5B5B",
"q  c #605C5A",
"w  c #474475",
"e  c gray38",
"r  c #636161",
"t  c #646363",
"y  c #656464",
"u  c #676565",
"i  c gray40",
"p  c #6A6160",
"a  c #6B6464",
"s  c #686767",
"d  c #6B6766",
"f  c #686868",
"g  c #6B6A6A",
"h  c #6F6A6A",
"j  c gray43",
"k  c #716E6E",
"l  c #796F6C",
"z  c #7D6C6D",
"x  c #767474",
"c  c #767676",
"v  c #787575",
"b  c #7F7A7A",
"n  c gray49",
"m  c #7F7F7F",
"M  c #996C6B",
"N  c #996D6C",
"B  c #986D6D",
"V  c #A16D6A",
"C  c #A07A77",
"Z  c #A37E7C",
"A  c #A9A75B",
"S  c #ABAC5F",
"D  c #968877",
"F  c #A48773",
"G  c #90B26D",
"H  c #92A872",
"J  c #ACAD60",
"K  c #ADAB6E",
"L  c #525592",
"P  c #5C6092",
"I  c #5E6294",
"U  c #727380",
"Y  c #7A7A86",
"T  c #656296",
"R  c #787C96",
"E  c #7477AE",
"W  c #6967B7",
"Q  c #7477B7",
"!  c #787CB0",
"~  c #787CBF",
"^  c #7D7FC4",
"/  c #7A7ECA",
"(  c #8B8A8B",
")  c #998988",
"_  c #9A8988",
"`  c #989583",
"'  c #939393",
"]  c #969191",
"[  c #969292",
"{  c #969393",
"}  c #999B9B",
"|  c #A38080",
" . c #AA9983",
".. c #A89798",
"X. c #A29D9D",
"o. c #AA9999",
"O. c #B89897",
"+. c #9BA989",
"@. c #9597BB",
"#. c #A2A2A2",
"$. c #A3A2A2",
"%. c gray64",
"&. c #A1A2A5",
"*. c #A3A4A5",
"=. c #A4A4A4",
"-. c #A5A5A5",
";. c #A3A0AB",
":. c #A6A7A8",
">. c #AAAEAE",
",. c #ACACAE",
"<. c #AAB4A2",
"1. c #A3A8B0",
"2. c #A0A0BC",
"3. c #A2A2BD",
"4. c #B5B4B4",
"5. c #BDBFBF",
"6. c #8C89C9",
"7. c #9B9CC6",
"8. c #9194DD",
"9. c #B3B4C1",
"0. c #A4A7D3",
"q. c #A2A3D5",
"w. c #8285E0",
"e. c #A0A7FF",
"r. c #A6C2EB",
"t. c #C2C3C3",
"y. c #C8C9C8",
"u. c #C8DBC8",
"i. c #C2C4D5",
"p. c #C3C5D6",
"a. c #C9C9D3",
"s. c #DFDFDF",
"d. c #E0D6D6",
"f. c #C3EBCA",
"g. c #F6DEE1",
"h. c gray90",
"j. c #EDF4FF",
"k. c gray98",
"l. c gray100",
"z. c None",
/* pixels */
"z.z.z.z.z.z.z.z.z.z.z.z.z.z.z.z.",
"z.] r t i f s 5 4 9 h 9 i i ' z.",
"z.( r 9 < , X - = # #   o 7 k z.",
"z.m j 3 >   - 0 d v m h x v s z.",
"z.} b 2 O 6 *...o.>.:.-.%.$.] z.",
"z.$.p < l C M B N V O.h.y.t.5.z.",
"z D K | Z F J J A  .a.u.f.j.X.: ",
"$.<.H _ _ ` G G +.p.@.1.r.g.4.] ",
"z.@ @ @ % * * c p.@.,.l.;.d.s.z.",
"z.z.z.z.z.z.z.9.0.Y k.&.Q q.z.z.",
"z.z.z.z.z.z.z.E 7.R U Q w.z.z.z.",
"z.z.z.z.z.z.T 6.~ ! / w.z.z.z.z.",
"z.z.z.z.z.z.2.8.W L ^ z.z.z.z.z.",
"z.z.z.z.z.2.e.I w z.z.z.z.z.z.z.",
"z.z.z.z.z.e.P z.z.z.z.z.z.z.z.z.",
"z.z.z.z.z.z.z.z.z.z.z.z.z.z.z.z."
};
