/* XPM */
static char *pppoe-config[] = {
/* columns rows colors chars-per-pixel */
"32 32 169 2",
"   c #000000",
".  c gray4",
"X  c #121212",
"o  c #1C1C1C",
"O  c #252525",
"+  c #2C2C2C",
"@  c #333333",
"#  c #3A3B3B",
"$  c #283F46",
"%  c #1D4753",
"&  c #1D4A57",
"*  c #175668",
"=  c #1F5C6F",
"-  c #166579",
";  c #2C4046",
":  c #2A4248",
">  c #214D5B",
",  c #324045",
"<  c #32484E",
"1  c #3C4243",
"2  c #3C4548",
"3  c #3F4C51",
"4  c #38535B",
"5  c #255764",
"6  c #275C6B",
"7  c #2F5660",
"8  c #335D66",
"9  c #315F6A",
"0  c #385F69",
"q  c #20667A",
"w  c #236B7F",
"e  c #2E6D7E",
"r  c #32606B",
"t  c #3E656D",
"y  c #356978",
"u  c #434343",
"i  c #474849",
"p  c #4C4C4C",
"a  c #495357",
"s  c #48585E",
"d  c #525252",
"f  c #5A5A5A",
"g  c #44626B",
"h  c #446F78",
"j  c #51666C",
"k  c #556C74",
"l  c #51747B",
"z  c #646464",
"x  c #6C6C6C",
"c  c #737373",
"v  c #797C7C",
"b  c #0D6786",
"n  c #0A6289",
"m  c #146B89",
"M  c #186582",
"N  c #1A6E8C",
"B  c #246D81",
"V  c #357485",
"C  c #32778B",
"Z  c #317D8F",
"A  c #3A7484",
"S  c #337F9C",
"D  c #387D96",
"F  c #427382",
"G  c #46798E",
"H  c #497C8B",
"J  c #437F90",
"K  c #507E8A",
"L  c #7B7F80",
"P  c #37819E",
"I  c #39829C",
"U  c #358BA9",
"Y  c #3D86A1",
"T  c #3F8AA5",
"R  c #428496",
"E  c #43869A",
"W  c #468A9F",
"Q  c #4D8292",
"!  c #4F8898",
"~  c #558693",
"^  c #518A9B",
"/  c #588594",
"(  c #438AA4",
")  c #468FA8",
"_  c #498EA5",
"`  c #4A8EA8",
"'  c #4491AB",
"]  c #4F92A6",
"[  c #4D93AA",
"{  c #4D9AB3",
"}  c #518EA1",
"|  c #5193A4",
" . c #5394AB",
".. c #5898AD",
"X. c #5797B0",
"o. c #5B9BB1",
"O. c #5EA0B5",
"+. c #64828A",
"@. c #658691",
"#. c #638A91",
"$. c #6A8D99",
"%. c #61979F",
"&. c #6D919C",
"*. c #7D8182",
"=. c #779D90",
"-. c #6396A5",
";. c #629BAD",
":. c #669EB3",
">. c #75AD92",
",. c #78AF93",
"<. c #7BB096",
"1. c #6DA1AC",
"2. c #66A0B6",
"3. c #6BA4B7",
"4. c #6CA4BA",
"5. c #7DA4AD",
"6. c #73A2B2",
"7. c #74ABBB",
"8. c #7BADBA",
"9. c #4FA7C2",
"0. c #78BCD2",
"q. c #BC9A36",
"w. c #87BC79",
"e. c #98A479",
"r. c #A9DA1D",
"t. c #A8D13A",
"y. c #C2981B",
"u. c #838383",
"i. c #8B8B8B",
"p. c #929292",
"a. c #999999",
"s. c #86B89B",
"d. c #81A6AD",
"f. c #A3A3A3",
"g. c #ACACAC",
"h. c #A4B9A2",
"j. c #B5B5B5",
"k. c #BCBCBC",
"l. c #86B1C0",
"z. c #89B5C5",
"x. c #8EBBC8",
"c. c #90BFCF",
"v. c #9FCAA4",
"b. c #9AC1CD",
"n. c #93C3D3",
"m. c #9AC3D1",
"M. c #9EC8D5",
"N. c #9DC8D8",
"B. c #A5C7C9",
"V. c #A2CDC9",
"C. c #A0C8D6",
"Z. c #A3CDDC",
"A. c #A9CAD5",
"S. c #A9CFDC",
"D. c #ADD1DF",
"F. c #A9D1E0",
"G. c #B0D5E2",
"H. c #B4D9E6",
"J. c #B7DBE8",
"K. c #BCDEE9",
"L. c #C2C2C2",
"P. c #CBCBCB",
"I. c #D2D2D2",
"U. c #DCDCDC",
"Y. c #C0DFEA",
"T. c #E3E3E3",
"R. c gray92",
"E. c gray100",
"W. c None",
/* pixels */
"W.W.W.W.W.W.W.W.W.W.@ @ @ u z c *.u.p.i.u.v x f # # @ @ @ W.W.W.",
"W.W.W.W.W.W.W.W.z f u x g.L.P.P.I.I.I.L.k.j.j.j.g.g.p.i @ W.W.W.",
"W.W.W.W.W.W.W.@ # @ i.I.P.P.I.I.I.P.k.j.j.k.j.j.j.L.P.d @ W.W.W.",
"W.W.W.W.W.W.W.@ @ u.P.P.I.I.I.I.P.j.k.j.j.j.k.j.j.L.P.f @ W.W.W.",
"W.W.W.W.W.W.. X # L.P.P.I.P.P.P.k.j.g.j.j.j.j.k.L.P.P.f @ W.W.W.",
"W.W.W.W.W.W.. + u P.P.P.P.P.L.g.c f d d d f c a.j.L.P.f @ W.W.W.",
"W.W.W.W.W.W.  @ c L.L.P.L.L.j.c # @ @ # @ @ @ # # p x d @ W.W.W.",
"W.W.W.W.W.    @ x L.L.L.L.g.g.i.# O X X . .     X @ # # @ W.W.W.",
"W.W.W.W.W.    @ p L.L.k.k.g.j.j.g.g.f.p.v f i @ @ @ W.@ @ W.W.W.",
"W.W.W.W.W.    + u g.k.j.j.j.j.j.j.k.L.L.L.L.L.g.p.u @ @ W.W.W.W.",
"W.W.W.W.W.W.    # z j.j.j.j.j.j.j.L.L.L.k.L.L.L.k.k.u.# @ W.W.W.",
"W.W.W.W.W.W.    @ # v g.k.k.k.k.j.k.j.k.k.k.k.L.k.L.P.L @ @ W.W.",
"W.W.W.W.W.W.      @ # d u.g.j.L.L.L.L.k.k.k.j.j.j.L.P.L.d @ W.W.",
"W.W.W.W.W.W.W.        @ # p f x u.a.g.j.k.L.L.k.k.L.P.P.v @ W.W.",
"W.W.W.W.W.W.W.@ @ O .       X X o O @ d f g.L.L.k.L.P.P.i.@ W.W.",
"W.W.W.Z - - - 0 p v p 3 4 8 9 9 r 9 4 % ; x P.L.L.L.P.P.a.# W.W.",
"W.W.W. .B B > & u P.P.j.i.d 1 $ : : : < p j.P.P.L.k.k.P.i.# W.W.",
"W.W.W.7.C y 6 V u I.I.U.U.U.I.P.L.k.k.P.I.I.I.P.P.f.P.P.z @ W.W.",
"W.W.:.1.E V y G u I.U.U.U.T.T.T.T.T.U.U.I.I.I.I.P.g.P.f.# $ W.W.",
"W.W.H -.} H F ^ u I.U.T.T.T.R.R.T.T.T.T.U.U.I.I.P.j.g.p 2 * W.W.",
"W.W.h 1.;./ K -.# j.I.T.R.R.R.R.R.R.R.T.U.U.I.I.k.i.i 2 / 6 W.W.",
"W.W.k 8.7.1.g 6.1 # u p c f.j.L.P.I.I.P.P.g.i.f u # j 8.d.t W.W.",
"W.3.+.z.z.c.@.&.&.K k s 2 @ + + + + @ @ @ @ # a +.l.n.n.c.l n W.",
"W.~ b.b.m.C.S.S.S.F.H.7.' U U ' T I D ( ;.A.D.Z.F.Z.Z.Z.Z.m.= W.",
"W.d.C.S.G.H.J.K.K.7.[ O.o.[ _ ( T Y Y ) { 9.0.Y.K.K.J.H.H.D...W.",
"W.J Q Q ! ^ } |  .2.....[ [ [ ) ( ( Y I P P T { { [ _ W E E M W.",
"W...o.s.t.7.d.4.5.4.5.<.t.<.t.>.t.=.q...5.| 5.] 5._ 5.N m b b W.",
"W.F.Z.v.r.x.#.x.#.x.#.v.r.v.r.v.r.h.y.x.#.x.#.x.#.x.#.C.Z.Z.N.W.",
"W.D.F.V.w.C.d.M.5.M.5.V.w.b.w.V.w.B.e.M.5.N.5.N.5.N.5.Z.F.Z.Z.W.",
"W.u.*.*.L L *.*.*.*.*.v L v v v v v v v v v L *.u.*.u.*.*.*.v W.",
"W.                                                            W.",
"W.                                                            W."
};
