/* XPM */
static char *pppoe_config___[] = {
/* columns rows colors chars-per-pixel */
"16 16 138 2",
"   c #2C2E2A",
".  c #2D2E2A",
"X  c #382E2B",
"o  c #382E2C",
"O  c #2F302C",
"+  c #343434",
"@  c #373737",
"#  c #3E3533",
"$  c #3E3634",
"%  c #3A3A3A",
"&  c gray23",
"*  c #46403F",
"=  c #464240",
"-  c #464441",
";  c #4E4242",
":  c #4D4946",
">  c #4D4947",
",  c #4F4A48",
"<  c #514948",
"1  c #524E4C",
"2  c #574E4D",
"3  c #54504F",
"4  c #57504F",
"5  c #5A5655",
"6  c #5C5858",
"7  c #605A5A",
"8  c #615D5B",
"9  c #615C5C",
"0  c #605E5E",
"q  c #484576",
"w  c #666464",
"e  c gray40",
"r  c #676666",
"t  c #6C6362",
"y  c #6B6564",
"u  c #686767",
"i  c #6C6867",
"p  c #6A6A6A",
"a  c #6B6A6A",
"s  c #6C6C6C",
"d  c #6D6C6C",
"f  c #716C6C",
"g  c #716F6E",
"h  c #796F6C",
"j  c #7D6C6D",
"k  c #747474",
"l  c gray46",
"z  c #787676",
"x  c #797676",
"c  c gray47",
"v  c #7E7E7E",
"b  c #996C6B",
"n  c #9A6D6D",
"m  c #996E6D",
"M  c #847F7F",
"N  c #A26D6B",
"B  c #A17A78",
"V  c #A47E7D",
"C  c #AAA75B",
"Z  c #ABAC5F",
"A  c #978877",
"S  c #A48773",
"D  c #90B36D",
"F  c #92A872",
"G  c #ACAE61",
"H  c #ADAB6E",
"J  c #525592",
"K  c #5C6092",
"L  c #727380",
"P  c #7A7A86",
"I  c #606294",
"U  c #656296",
"Y  c #787C96",
"T  c #7477AE",
"R  c #6968B7",
"E  c #797CB0",
"W  c #7477B8",
"Q  c #787CBF",
"!  c #7E7FC4",
"~  c #7A7ECB",
"^  c #808081",
"/  c #8C8B8C",
"(  c #9A8988",
")  c #998A88",
"_  c #979683",
"`  c #939393",
"'  c #969191",
"]  c #969292",
"[  c #969494",
"{  c #9D9E9F",
"}  c #A48180",
"|  c #AA9983",
" . c #A29D9D",
".. c #AA9898",
"X. c #AA9A9A",
"o. c #B89897",
"O. c #9BAA89",
"+. c #9697BB",
"@. c gray64",
"#. c #A1A2A5",
"$. c #A4A4A4",
"%. c #A5A5A5",
"&. c #A4A5A6",
"*. c gray65",
"=. c #A7A7A7",
"-. c #A2A0AB",
";. c #A7A8A9",
":. c #ABAFAF",
">. c #ACACAE",
",. c #AAB4A2",
"<. c #A3A8B0",
"1. c #A0A0BC",
"2. c #A2A2BD",
"3. c #B6B6B6",
"4. c #BDBFBF",
"5. c #8C89C9",
"6. c #9B9CC6",
"7. c #9194DD",
"8. c #B4B4C1",
"9. c #A2A3D5",
"0. c #A5A7D4",
"q. c #8385E0",
"w. c #A0A7FF",
"e. c #A5C1EB",
"r. c #C2C3C3",
"t. c #C8CAC8",
"y. c #C8DBC8",
"u. c #C4C4D6",
"i. c #CACAD4",
"p. c #DFDFDF",
"a. c #E0D6D6",
"s. c #C2EACA",
"d. c #F6DDE0",
"f. c gray90",
"g. c #ECF3FF",
"h. c gray98",
"j. c gray100",
"k. c None",
/* pixels */
"k.k.k.k.k.k.k.k.k.k.k.k.k.k.k.k.",
"k.' w u p s p 4 2 7 d 0 u u ` k.",
"k./ w 0 < , o * = # $ . X 6 f k.",
"k.^ l 3 :   - 8 i x v f x c u k.",
"k.{ M 1 O 5 &.....:.;.=.%.$.[ k.",
"k.;.t : h B b m m N o.f.t.r.4.k.",
"j A H } V S G Z C | i.y.s.g. .; ",
"@.,.F ( ( _ D D O.u.+.<.e.d.3.] ",
"k.+ + @ & & & l u.+.:.j.-.a.a.k.",
"k.k.k.k.k.k.k.8.0.P h.#.W 9.k.k.",
"k.k.k.k.k.k.k.T 6.Y L W q.k.k.k.",
"k.k.k.k.k.k.U 5.Q E ~ q.k.k.k.k.",
"k.k.k.k.k.k.2.7.R J ! k.k.k.k.k.",
"k.k.k.k.k.2.w.I q k.k.k.k.k.k.k.",
"k.k.k.k.k.w.K k.k.k.k.k.k.k.k.k.",
"k.k.k.k.k.k.k.k.k.k.k.k.k.k.k.k."
};
