/* XPM */
static char *pppoe_config[] = {
/* columns rows colors chars-per-pixel */
"32 32 216 2",
"   c #1E1E1E",
".  c #2D211E",
"X  c #2C2522",
"o  c #2D2A27",
"O  c #2C2E2A",
"+  c #382A27",
"@  c #352E2B",
"#  c #3D2E2C",
"$  c #34322E",
"%  c #3B312E",
"&  c #363430",
"*  c #3E3533",
"=  c #3F3B37",
"-  c #433432",
";  c #413A37",
":  c #463B3A",
">  c #493C3C",
",  c #33354F",
"<  c #4C4341",
"1  c #514847",
"2  c #544B4A",
"3  c #565554",
"4  c #5B5352",
"5  c #5D5A59",
"6  c #605757",
"7  c #6B5757",
"8  c #615857",
"9  c #625D5D",
"0  c #6B5B5A",
"q  c #725959",
"w  c #69605F",
"e  c #4F4F67",
"r  c #44406E",
"t  c #4D4F78",
"y  c #4E527A",
"u  c #51537C",
"i  c #646464",
"p  c #6A6666",
"a  c #6B6867",
"s  c #6B6B6B",
"d  c #736666",
"f  c #746C6B",
"g  c #7C6A6A",
"h  c #676877",
"j  c #686977",
"k  c #62647B",
"l  c #696A7A",
"z  c #737272",
"x  c #7A7474",
"c  c #7C7A7A",
"v  c #9A4642",
"b  c #9D4E4C",
"n  c #875B59",
"m  c #895E5D",
"M  c #9F5751",
"N  c #915E5C",
"B  c #B6504A",
"V  c #AF5750",
"C  c #A05D5C",
"Z  c #BF5E5A",
"A  c #A8615E",
"S  c #8D6463",
"D  c #8F6967",
"F  c #8B6968",
"G  c #916A67",
"H  c #9A6862",
"J  c #926B6A",
"K  c #98736C",
"L  c #997A6F",
"P  c #846F72",
"I  c #827675",
"U  c #8E7676",
"Y  c #8A7678",
"T  c #837979",
"R  c #8B7B7C",
"E  c #967472",
"W  c #997473",
"Q  c #957976",
"!  c #9B7D73",
"~  c #947E7F",
"^  c #9D7C7B",
"/  c #AA6763",
"(  c #A26968",
")  c #B5903B",
"_  c #9DC839",
"`  c #C1E018",
"'  c #9A8862",
"]  c #929C65",
"[  c #9D8177",
"{  c #97867F",
"}  c #9DAA72",
"|  c #ADA57E",
" . c #AABE7D",
".. c #464884",
"X. c #5E5A87",
"o. c #494C91",
"O. c #4D5094",
"+. c #515194",
"@. c #6B6C88",
"#. c #6F7286",
"$. c #61639E",
"%. c #6D7094",
"&. c #7B7F9B",
"*. c #524BAB",
"=. c #5C5EA1",
"-. c #5F62AD",
";. c #6C6CA3",
":. c #7B7EA4",
">. c #7374AE",
",. c #676BB4",
"<. c #686CB7",
"1. c #7576B0",
"2. c #767AB7",
"3. c #787CB0",
"4. c #7274B8",
"5. c #787DBC",
"6. c #6159C1",
"7. c #635CD3",
"8. c #7176C3",
"9. c #7A7EC7",
"0. c #7A7EC9",
"q. c #6661D6",
"w. c #7F82A5",
"e. c #7E81D3",
"r. c #7D81DA",
"t. c #858585",
"y. c #898383",
"u. c #8E8E8E",
"i. c #968685",
"p. c #948F8F",
"a. c #848E97",
"s. c #8F8F94",
"d. c #87839B",
"f. c #949494",
"g. c #989091",
"h. c #95989A",
"j. c #9B9B9B",
"k. c #A48080",
"l. c #A58C8C",
"z. c #A69392",
"x. c #A19E9E",
"c. c #A99D9C",
"v. c #B79395",
"b. c #9CAD8E",
"n. c #9DB08D",
"m. c #9FB290",
"M. c #ABA09F",
"N. c #8386A9",
"B. c #9393AB",
"V. c #A3A3A3",
"C. c #A9AEA5",
"Z. c #AEACAC",
"A. c #B0AEAE",
"S. c #ACB2A8",
"D. c #B9AEB2",
"F. c #AFB2B4",
"G. c #B3B3B3",
"H. c #BCB3B4",
"J. c #B7BABC",
"K. c #BCBCBC",
"L. c #C5B5B5",
"P. c #CDB7B7",
"I. c #E8BFBF",
"U. c #8FD48F",
"Y. c #9DE29D",
"T. c #A3D4A3",
"R. c #B3E7B3",
"E. c #8B8EC5",
"W. c #9A98C7",
"Q. c #9598CB",
"!. c #999BCB",
"~. c #8286D2",
"^. c #8083D8",
"/. c #A1A4CF",
"(. c #A3A6D2",
"). c #A2A4DD",
"_. c #B2B4D4",
"`. c #B7B7DB",
"'. c #B6B8DA",
"]. c #868DE6",
"[. c #8184EC",
"{. c #80ABEA",
"}. c #9AA0E8",
"|. c #8BB7FA",
" X c #A8A9E5",
".X c #A3A3E9",
"XX c #A0A7FF",
"oX c #B8BBFF",
"OX c #E5BFC0",
"+X c #BBC3C5",
"@X c #BEC6CA",
"#X c #BEC9CC",
"$X c #BECFD4",
"%X c #BED0D5",
"&X c #B5D3FF",
"*X c #CDCDCE",
"=X c #D3CFCF",
"-X c #CECED2",
";X c #C5C6DC",
":X c #CACCDF",
">X c #D7D7D7",
",X c #DDDEDD",
"<X c #F6CFCF",
"1X c #F9D1D1",
"2X c #CDF3CD",
"3X c #C0C0E9",
"4X c #C5D1E3",
"5X c #CCD4E1",
"6X c #E2E2E2",
"7X c gray92",
"8X c #FFE4E4",
"9X c #E1EDFF",
"0X c #E9F1FE",
"qX c #F5F5F6",
"wX c #FEFEFE",
"eX c None",
/* pixels */
"eXeXeXeXeXeXeXeXeXeXeXeXeXeXeXeXeXeXeXeXeXeXeXeXeXeXeXeXeXeXeXeX",
"eXeXeXeXeXeXeXeXeXeXeXeXeXeXeXeXeXeXeXeXeXeXeXeXeXeXeXeXeXeXeXeX",
"eXeXeXI 5 i i i i i p s s s s s i a f s s s s s s s i i T eXeXeX",
"eXeXeXi.i i i i p s s s j 2 - - : - % 2 s s 4 2 w p i i p.eXeXeX",
"eXeXeXl.i i i i 5 5 a 9 - < a a i 8 4 % % : o O o : s w ~ eXeXeX",
"eXeXeXy.i i i < + : # o X X . X X X o o $ % O O O = = 5 g eXeXeX",
"eXeX0 T i s 5 * s : O O O @ * > < 2 6 d z z 4 2 w s w i d * eXeX",
"eXeX8 t.c c 5 p 1 O O O ; t.t.t.t.t.t.t.t.t.t.t.t.t.{ w.T > eXeX",
"eXeXg f.u.p.3 f o O O & y.j.j.j.j.j.j.j.j.B.j.j.j.j.j.h.g.w eXeX",
"eXeX{ B.j.4 $ o O o ; h.$X#XD.v.v.H.#X$X+XZ.Z.D.S.S.S.Z.C.p eXeX",
"eXg S.Z.; z o O O f.L.M v b C ( ( A V B Z P.>X6XK.J.G.K.*XA.eXeX",
"eXz.J.t.x G.5 8 0 H E E D S S S S m m n S =X0X,X,X,XwXF._.+XR eX",
"eXY I U { E ^ Q l.^ k.W ! J ! G L S K G R.8X,X,XY.2XwXwXz.0 8 eX",
"eXY R } _ ^ / W A E A ] _ ] _ ] _ ' ) K.4X;X,XU.R.9X&XwXqX{ 2 eX",
"eXJ.A. .` l.N z.N z.N  .`  .`  .` | K.:X'.(.a.Y.4X|.0X8X*Xx.Z.eX",
"eXG.G.S.m.Z.c.Z.M.C.c.C.m.C.n.C.b.K.:X'.(.l C.5Xr.5X<X<X,Xj.M.eX",
"eXp 9 i 9 i i a s s s s s s s z K.:X'./.j V.wXwX*XOXOX,X,X-X3 eX",
"eXeXeXeXeXeXeXeXeXeXeXeXeXeX  J.:X'./.j V.wXwXwXh.d.,X,XqXx.eXeX",
"eXeXeXeXeXeXeXeXeXeXeXeXeXeXG.5X'.(.l j.wXwXwXs.k 0..XqXV.eXeXeX",
"eXeXeXeXeXeXeXeXeXeXeXeXeXeXs._.(.Q.:.z 7XwXh.k 9.0.[.N.eXeXeXeX",
"eXeXeXeXeXeXeXeXeXeXeXeXeX@.$.'.!.E.w.#.a s.@.0.^.[.1.eXeXeXeXeX",
"eXeXeXeXeXeXeXeXeXeXeXeXeXeX-.1.3XN.&.:.%.k e.r.[.1.eXeXeXeXeXeX",
"eXeXeXeXeXeXeXeXeXeXeXeXeX6.W.E.4.}.:.3.5.0.r.r.1.eXeXeXeXeXeXeX",
"eXeXeXeXeXeXeXeXeXeXeXeXeXX.7..X9.,.8.2.e.e.r.4.eXeXeXeXeXeXeXeX",
"eXeXeXeXeXeXeXeXeXeXeXeXeXB. Xq.^.<.-.o.e.[.>.eXeXeXeXeXeXeXeXeX",
"eXeXeXeXeXeXeXeXeXeXeXeXB.oXXX~.7.+.O...e ;.eXeXeXeXeXeXeXeXeXeX",
"eXeXeXeXeXeXeXeXeXeXeXB.oXXX].u r *.eX, eXeXeXeXeXeXeXeXeXeXeXeX",
"eXeXeXeXeXeXeXeXeXeXB.oXXX].u eXeXeXeXeXeXeXeXeXeXeXeXeXeXeXeXeX",
"eXeXeXeXeXeXeXeXeXeXoXXX].t eXeXeXeXeXeXeXeXeXeXeXeXeXeXeXeXeXeX",
"eXeXeXeXeXeXeXeXeXeXXX].t eXeXeXeXeXeXeXeXeXeXeXeXeXeXeXeXeXeXeX",
"eXeXeXeXeXeXeXeXeXeXeXeXeXeXeXeXeXeXeXeXeXeXeXeXeXeXeXeXeXeXeXeX",
"eXeXeXeXeXeXeXeXeXeXeXeXeXeXeXeXeXeXeXeXeXeXeXeXeXeXeXeXeXeXeXeX"
};
